<svg xmlns="http://www.w3.org/2000/svg" viewBox="0 0 24 24" width="24" height="24">
  <path fill="#2E7D32" d="M12 2C11.5 2 11 3 10.5 4.5S10 8 11.5 9S12 2 12 2z"/>
  <path fill="#388E3C" d="M12 5c-1 0-2 1.5-2.5 3S9 12 11 13s1-8 1-8z"/>
  <path fill="#388E3C" d="M12 5c1 0 2 1.5 2.5 3s.5 4-1.5 5s-1-8-1-8z"/>
  <path fill="#4CAF50" d="M12 9c-1.5 0-3 2-3.5 4s-.5 5 2 6s1.5-10 1.5-10z"/>
  <path fill="#4CAF50" d="M12 9c1.5 0 3 2 3.5 4s.5 5-2 6s-1.5-10-1.5-10z"/>
  <path fill="#81C784" d="M12 13c-2 0-3.5 2.5-4 5s0 4 2.5 4s1.5-9 1.5-9z"/>
  <path fill="#81C784" d="M12 13c2 0 3.5 2.5 4 5s0 4-2.5 4s-1.5-9-1.5-9z"/>
  <rect fill="#5D4037" x="11" y="21" width="2" height="2" rx="0.5"/>
</svg>
